<?xml version="1.0" standalone="no"?>
<!DOCTYPE svg PUBLIC "-//W3C//DTD SVG 20010904//EN"
 "http://www.w3.org/TR/2001/REC-SVG-20010904/DTD/svg10.dtd">
<svg version="1.0" xmlns="http://www.w3.org/2000/svg"
 width="1000.000000pt" height="1000.000000pt" viewBox="0 0 1000.000000 1000.000000"
 preserveAspectRatio="xMidYMid meet">
<metadata>
Created by potrace 1.14, written by Peter Selinger 2001-2017
</metadata>
<g transform="translate(0.000000,1000.000000) scale(0.100000,-0.100000)"
fill="#000000" stroke="none">
<path d="M4797 9435 c-20 -14 -38 -32 -38 -40 -1 -8 -3 -19 -4 -25 -1 -5 -3
-15 -4 -21 -1 -8 -6 -8 -16 1 -13 10 -15 9 -15 -9 0 -11 3 -20 8 -20 19 3 20
-3 5 -21 -10 -11 -26 -20 -37 -20 -30 0 -111 -92 -124 -140 -6 -23 -8 -48 -6
-55 3 -7 1 -16 -4 -19 -7 -4 -7 -19 0 -43 5 -20 8 -47 5 -60 -3 -14 1 -27 11
-32 9 -5 12 -13 7 -22 -11 -17 -13 -59 -3 -59 10 0 6 -23 -6 -32 -8 -6 -10
-30 -7 -118 0 -24 -6 -90 -9 -100 -1 -3 -2 -8 -1 -12 0 -5 3 -43 6 -85 5 -73
9 -112 21 -180 2 -15 8 -55 14 -88 7 -47 15 -65 39 -86 17 -15 31 -31 31 -37
0 -17 66 -82 83 -82 25 0 10 -26 -16 -27 -12 -1 -26 -8 -32 -16 -5 -7 -25 -19
-43 -26 -21 -9 -31 -19 -28 -27 3 -8 0 -13 -6 -11 -6 1 -12 -7 -13 -18 -7 -69
-17 -121 -25 -130 -4 -5 -6 -21 -5 -35 2 -14 6 -42 9 -62 4 -25 2 -38 -5 -38
-8 0 -8 -4 0 -14 13 -15 11 -75 -2 -83 -4 -2 -5 -13 -2 -24 4 -10 2 -19 -3
-19 -12 0 -16 -55 -16 -231 -1 -126 1 -150 17 -166 9 -11 17 -35 17 -55 0 -46
67 -148 85 -130 4 4 16 8 28 9 12 1 38 5 57 9 19 4 56 7 82 7 39 0 48 4 57 24
7 16 7 23 0 23 -6 0 -8 4 -4 10 3 5 13 7 23 4 14 -5 14 -4 3 4 -18 13 -22 52
-9 70 6 7 7 12 1 12 -5 0 -8 14 -5 30 2 17 8 30 13 30 4 0 7 9 6 19 0 11 -4
19 -7 19 -23 -2 -52 3 -47 9 4 3 2 12 -4 20 -9 10 -8 13 1 13 7 0 18 -7 24
-15 10 -14 14 -14 34 1 18 12 22 22 17 41 -4 19 -1 26 15 30 11 3 20 9 20 14
0 5 -6 6 -13 3 -14 -5 -15 30 -1 116 4 25 6 49 5 54 -5 22 23 116 36 116 8 0
14 13 15 33 1 30 3 45 8 57 4 12 10 48 13 91 4 41 2 46 -15 42 -10 -3 -18 0
-18 6 0 6 3 10 8 10 18 -3 32 2 32 12 0 6 -6 9 -14 6 -19 -8 -38 16 -30 37 3
9 1 16 -4 16 -10 0 -10 10 0 49 4 16 -71 63 -89 56 -7 -2 -13 2 -13 10 0 10
10 15 27 15 33 0 93 21 93 32 0 5 11 20 25 34 16 16 24 32 20 43 -3 11 3 25
15 36 22 20 26 50 10 60 -7 5 -8 11 -1 19 5 6 9 21 7 31 -3 17 -11 20 -50 19
-25 0 -46 3 -46 8 0 4 9 8 19 8 11 0 23 5 26 11 4 6 13 8 21 5 8 -3 26 6 40
19 l27 25 -24 1 c-15 1 -18 3 -8 6 25 6 32 45 12 61 -15 11 -15 12 3 12 12 0
15 3 7 8 -6 4 -11 23 -9 42 2 19 -2 38 -7 42 -7 4 -7 11 1 20 6 8 7 19 3 27
-5 7 -7 24 -5 39 1 15 -2 32 -8 39 -8 10 -6 13 8 14 11 0 14 3 7 6 -7 2 -13 9
-13 15 0 6 6 8 13 5 8 -3 14 1 14 9 0 8 -6 14 -14 14 -7 0 -13 9 -13 21 0 11
5 17 10 14 6 -3 10 -2 10 3 0 6 -6 12 -14 15 -19 8 -17 55 3 60 14 4 13 5 -2
6 -13 1 -16 7 -13 26 3 18 -1 28 -15 35 -10 6 -19 18 -19 26 0 11 -6 14 -16
10 -12 -5 -15 -2 -9 11 8 21 8 22 6 46 0 9 -8 17 -17 17 -10 0 -14 6 -10 15 4
11 -1 15 -19 15 -24 0 -24 1 -8 20 20 23 38 27 29 5 -5 -13 32 -50 42 -41 6 6
-21 50 -40 64 -22 16 -24 36 -3 29 8 -4 17 -2 20 3 4 6 1 10 -6 10 -8 0 -8 4
-1 13 8 9 4 12 -13 13 -14 1 -24 -1 -23 -5 2 -19 -5 -17 -34 9 -23 22 -29 33
-21 41 8 8 13 8 17 0 4 -6 12 -11 17 -11 6 0 7 5 3 12 -10 15 -11 67 -1 61 4
-2 7 -11 7 -19 0 -8 7 -17 15 -20 10 -4 13 -14 9 -33 l-5 -26 20 23 c21 24 20
27 -11 82 -4 8 -13 25 -18 38 -5 13 -24 29 -41 36 -21 9 -27 15 -18 19 12 5
12 7 -1 16 -11 8 -18 7 -27 -5 -20 -28 -75 19 -56 48 3 6 1 8 -5 4 -5 -3 -12
-2 -14 4 -2 6 -20 -1 -41 -15z m98 -2375 c3 -5 -1 -10 -10 -10 -9 0 -13 5 -10
10 3 6 8 10 10 10 2 0 7 -4 10 -10z"/>
<path d="M3432 9223 c-10 -4 -10 -8 -1 -19 16 -19 45 -18 53 2 5 13 2 15 -13
11 -11 -3 -21 -2 -23 3 -2 4 -9 5 -16 3z"/>
<path d="M3401 9184 c-7 -8 -10 -18 -7 -21 3 -3 1 -12 -5 -19 -6 -8 -8 -21 -5
-30 4 -12 2 -15 -9 -10 -8 3 -15 1 -15 -4 0 -6 -5 -10 -10 -10 -6 0 -8 11 -4
27 6 24 5 25 -8 12 -9 -8 -15 -27 -14 -42 2 -21 -2 -26 -12 -22 -13 5 -13 3
-2 -11 11 -12 11 -20 3 -33 -7 -10 -10 -30 -9 -45 2 -14 -1 -26 -6 -26 -6 0
-7 -11 -4 -24 3 -14 2 -27 -3 -31 -6 -3 -8 -14 -6 -25 2 -11 0 -20 -5 -20 -6
0 -8 -15 -6 -32 2 -18 -1 -44 -6 -58 -18 -46 -21 -65 -23 -135 -2 -38 2 -75 7
-82 5 -7 7 -17 3 -23 -3 -5 -1 -10 4 -10 6 0 11 -6 11 -14 0 -17 70 -18 82 -1
9 13 22 -1 13 -14 -3 -6 -15 -11 -26 -11 -10 0 -19 -4 -19 -10 0 -5 5 -10 10
-10 6 0 10 -4 10 -10 0 -5 -9 -10 -21 -10 -11 0 -18 4 -15 9 7 11 -22 23 -35
15 -6 -3 -7 -14 -4 -24 3 -10 1 -21 -5 -25 -5 -3 -10 -11 -10 -16 0 -6 4 -8 8
-5 10 6 6 -38 -6 -81 -6 -17 -8 -33 -6 -35 2 -3 5 -28 7 -57 4 -43 2 -51 -11
-46 -12 4 -13 3 -2 -10 7 -8 19 -15 26 -15 19 0 18 -16 -1 -24 -11 -4 -14 -14
-9 -38 4 -18 8 -42 9 -53 1 -11 8 -19 14 -18 6 2 11 -2 11 -7 0 -6 -6 -10 -12
-10 -10 0 -10 -2 0 -8 7 -5 15 -26 17 -47 3 -22 9 -42 13 -45 4 -3 8 -11 10
-17 1 -7 3 -19 5 -25 3 -20 36 -40 66 -43 15 -1 33 -5 39 -9 6 -4 20 -3 29 2
10 6 42 13 72 17 39 5 55 12 58 25 3 10 16 21 30 25 29 7 55 29 46 39 -7 7 27
88 41 98 6 4 7 10 4 14 -4 4 1 19 12 34 24 34 35 120 17 132 -9 6 -8 8 2 8 11
0 9 4 -5 15 -17 13 -17 14 -1 15 17 0 17 16 2 67 -2 7 0 15 5 18 6 4 10 -1 10
-9 0 -9 5 -16 11 -16 5 0 8 4 5 9 -3 5 -1 23 5 40 6 17 8 39 4 49 -14 31 -14
43 1 49 16 6 19 39 4 48 -5 3 -10 14 -10 25 0 10 -7 20 -15 24 -14 5 -14 9 0
43 11 26 12 38 4 44 -8 5 -8 8 1 11 10 3 10 9 1 25 -8 15 -8 24 -1 28 8 5 7
11 -1 21 -6 8 -8 14 -4 14 4 0 2 7 -5 15 -10 12 -10 15 0 15 10 0 9 4 -2 18
-8 9 -21 33 -28 52 -16 42 -38 70 -57 70 -7 0 -13 6 -13 14 0 8 -8 17 -17 19
-12 3 -10 5 7 6 18 1 26 7 27 20 1 14 -3 18 -15 15 -15 -5 -15 -4 0 6 14 9 15
14 6 24 -10 10 -16 9 -32 -5 -10 -10 -24 -15 -30 -12 -7 4 -6 8 2 11 7 2 12 8
12 14 0 5 7 16 15 24 21 21 19 33 -5 27 -11 -3 -17 -10 -13 -15 3 -6 0 -9 -8
-6 -18 6 -18 34 0 30 12 -3 12 0 2 12 -11 13 -9 15 9 11 13 -2 19 -1 16 3 -4
4 -13 7 -19 7 -7 0 -11 8 -11 18 1 9 -2 14 -7 11 -5 -3 -9 2 -9 11 0 9 -5 13
-10 10 -6 -4 -8 -10 -5 -15 5 -8 -25 -24 -32 -16 -2 2 -5 13 -6 24 0 12 -4 19
-7 16 -5 -6 -7 -13 -9 -45 -1 -18 -4 -19 -16 -9 -8 7 -12 16 -9 21 3 5 0 9 -5
9 -6 0 -11 7 -11 15 0 8 -7 15 -15 15 -9 0 -20 11 -25 25 -11 29 -11 29 -29 9z"/>
<path d="M3474 9168 c-5 -7 -2 -8 6 -3 10 6 12 4 7 -8 -3 -9 -2 -19 2 -22 5
-2 11 4 14 14 5 22 -18 37 -29 19z"/>
<path d="M3530 9173 c0 -6 8 -17 18 -24 16 -13 16 -13 2 6 -8 11 -16 22 -17
24 -2 2 -3 0 -3 -6z"/>
<path d="M3355 9150 c3 -5 8 -10 11 -10 2 0 4 5 4 10 0 6 -5 10 -11 10 -5 0
-7 -4 -4 -10z"/>
<path d="M3610 9126 c0 -2 8 -10 18 -17 15 -13 16 -12 3 4 -13 16 -21 21 -21
13z"/>
<path d="M5077 9003 c-4 -3 -7 -11 -7 -17 0 -6 5 -5 12 2 6 6 9 14 7 17 -3 3
-9 2 -12 -2z"/>
<path d="M5092 8951 c7 -9 14 -18 15 -20 2 -2 3 5 3 16 0 11 -7 20 -15 20 -12
0 -12 -3 -3 -16z"/>
<path d="M7104 8039 c-3 -6 -12 -8 -20 -5 -7 3 -19 -3 -26 -13 -7 -9 -21 -20
-31 -24 -11 -4 -21 -16 -24 -27 -3 -11 -9 -20 -14 -20 -5 0 -6 -7 -3 -15 5
-11 10 -13 19 -5 9 8 12 3 11 -20 -1 -21 -5 -29 -15 -25 -8 3 -11 0 -8 -9 3
-8 -5 -26 -18 -40 -18 -20 -20 -26 -8 -30 8 -3 12 -2 9 3 -4 5 4 7 16 3 l22
-5 -22 -8 c-12 -5 -22 -11 -22 -14 0 -4 4 -4 9 0 5 3 12 1 16 -5 3 -5 -3 -10
-14 -10 -10 0 -21 4 -23 10 -1 5 -13 7 -26 4 -17 -5 -20 -10 -12 -19 8 -9 5
-14 -9 -18 -17 -4 -19 -2 -10 21 5 14 17 31 26 37 12 9 13 16 4 32 -16 31 -43
22 -68 -22 -12 -21 -36 -52 -53 -68 -29 -28 -31 -32 -16 -43 12 -8 15 -20 10
-38 -3 -14 -9 -27 -13 -27 -3 -1 -16 -3 -28 -4 -40 -4 -72 -56 -40 -68 6 -3
-1 -10 -17 -16 -21 -8 -27 -16 -23 -31 3 -10 -1 -21 -9 -24 -7 -3 -18 -24 -25
-48 -7 -24 -21 -54 -31 -67 -10 -13 -15 -28 -12 -33 3 -5 1 -14 -4 -21 -11
-14 -32 -102 -40 -172 -18 -152 2 -231 66 -260 20 -9 58 -28 84 -41 50 -25 87
-31 89 -14 1 6 2 16 3 23 1 8 20 12 56 12 51 0 55 2 65 29 7 22 7 30 -2 33 -7
3 -13 9 -13 14 0 6 5 7 10 4 6 -3 10 -1 10 5 0 6 4 8 10 5 15 -9 52 15 46 31
-3 8 1 14 10 14 8 0 12 5 9 11 -11 17 24 48 47 41 14 -3 19 -1 14 6 -4 7 -14
12 -22 12 -8 0 -12 5 -9 11 4 6 14 8 22 5 9 -4 11 -2 6 7 -12 19 -13 40 -1 54
8 10 7 13 -3 13 -11 0 -11 2 1 9 8 6 18 7 23 4 5 -3 4 4 -2 15 -7 13 -17 19
-26 16 -8 -4 -15 -1 -15 6 0 8 11 11 30 8 37 -6 59 14 40 37 -9 11 -9 15 -1
15 7 0 9 5 6 10 -8 12 -3 13 28 1 18 -7 24 -6 24 5 0 8 -6 13 -13 10 -13 -5
-95 32 -106 48 -14 19 -8 31 6 14 18 -24 29 -23 21 2 -4 12 -2 20 5 20 8 0 10
9 6 25 l-7 26 35 -23 c34 -22 34 -24 17 -38 -20 -17 -38 -55 -20 -44 6 4 15 0
20 -7 8 -12 10 -12 18 0 7 11 9 11 14 0 4 -10 6 -10 6 -1 1 6 9 12 18 12 13 0
14 3 5 12 -18 18 -15 28 8 28 15 0 20 7 20 25 0 36 -2 39 -28 41 -34 2 -48 19
-32 39 7 8 14 26 15 40 3 22 1 23 -21 13 -13 -6 -24 -18 -24 -27 1 -14 2 -14
14 1 19 26 28 10 9 -18 -14 -22 -17 -23 -27 -8 -11 15 -14 15 -29 -1 -20 -19
-44 -11 -27 10 14 17 1 48 -18 40 -12 -5 -13 -3 -2 10 7 9 18 14 23 12 6 -2
19 5 29 15 10 10 24 15 30 12 9 -6 9 -9 0 -12 -7 -2 -12 -8 -12 -14 0 -12 35
-6 36 7 0 6 4 23 9 38 6 24 11 28 34 23 26 -6 26 -6 -3 10 -23 13 -30 14 -37
3 -6 -11 -9 -10 -15 4 -4 12 -13 16 -25 12 -14 -5 -17 -2 -13 9 6 15 44 18 44
3 0 -4 5 -5 10 -2 17 11 11 31 -12 43 -13 6 -17 11 -10 11 7 1 22 -4 33 -9 13
-7 19 -7 19 0 0 5 -6 10 -12 10 -9 0 -8 3 2 10 8 5 11 12 7 16 -4 4 1 13 11
20 9 7 12 14 5 14 -7 0 -10 15 -9 38 3 52 16 93 28 86 5 -3 5 -11 -2 -19 -8
-10 -8 -15 1 -21 8 -4 9 -3 5 5 -4 6 0 14 9 17 9 4 12 10 7 13 -6 3 -12 15
-14 26 -1 11 -11 28 -21 37 -11 9 -16 21 -13 26 3 5 -6 20 -19 32 -14 13 -25
19 -25 13 0 -6 6 -13 13 -16 9 -3 9 -8 1 -16 -9 -10 -13 -7 -18 12 -6 27 -32
42 -42 26z"/>
<path d="M6921 7886 c-9 -10 -8 -16 4 -26 12 -10 16 -9 21 4 3 9 10 13 15 10
5 -3 9 -1 9 4 0 6 -7 13 -16 16 -21 8 -20 8 -33 -8z"/>
<path d="M6957 7853 c-4 -3 -7 -11 -7 -17 0 -6 5 -5 12 2 6 6 9 14 7 17 -3 3
-9 2 -12 -2z"/>
<path d="M7205 7840 c3 -5 8 -10 11 -10 2 0 4 5 4 10 0 6 -5 10 -11 10 -5 0
-7 -4 -4 -10z"/>
<path d="M3474 7695 c-3 -7 -4 -21 -2 -31 2 -16 -3 -19 -30 -18 -28 1 -31 -1
-20 -14 11 -13 10 -15 -4 -9 -10 3 -20 1 -24 -5 -4 -6 -3 -8 4 -4 6 3 17 -1
26 -10 9 -8 20 -13 25 -10 5 4 12 0 14 -6 3 -8 6 -6 6 5 1 19 17 23 23 6 2 -7
16 -13 31 -15 21 -2 27 2 27 17 0 11 5 17 10 14 6 -3 10 -1 10 4 0 6 -7 11
-16 11 -11 0 -14 6 -9 23 4 12 8 24 9 27 1 6 -5 9 -44 20 -23 7 -32 5 -36 -5z"/>
<path d="M7205 7700 c3 -5 8 -10 11 -10 2 0 4 5 4 10 0 6 -5 10 -11 10 -5 0
-7 -4 -4 -10z"/>
<path d="M3435 7680 c-3 -5 -1 -10 4 -10 6 0 11 5 11 10 0 6 -2 10 -4 10 -3 0
-8 -4 -11 -10z"/>
<path d="M6760 7675 c-8 -10 -9 -19 -4 -25 5 -5 16 2 27 16 14 19 15 24 4 24
-8 0 -20 -7 -27 -15z"/>
<path d="M7230 7680 c0 -5 5 -10 10 -10 6 0 10 5 10 10 0 6 -4 10 -10 10 -5 0
-10 -4 -10 -10z"/>
<path d="M7180 7671 c0 -10 19 -25 25 -20 1 2 -3 10 -11 17 -8 7 -14 8 -14 3z"/>
<path d="M1647 7619 c-16 -4 -35 -5 -42 -3 -7 3 -16 0 -20 -5 -3 -6 -11 -9
-16 -6 -5 4 -12 -2 -16 -12 -3 -10 -15 -30 -25 -45 -11 -16 -15 -28 -8 -28 6
0 8 -4 5 -10 -6 -9 7 -14 27 -11 4 0 5 -6 2 -14 -4 -8 -9 -13 -13 -11 -12 8
-37 -13 -26 -21 15 -12 18 -43 5 -57 -5 -8 -7 -22 -3 -31 5 -14 3 -16 -7 -10
-10 6 -12 4 -7 -9 4 -10 7 -20 7 -23 0 -3 6 0 14 6 11 10 15 4 17 -32 5 -51
-17 -95 -43 -91 -22 3 -23 -19 -3 -36 13 -11 14 -10 9 4 -4 10 -1 16 9 16 13
0 14 -6 7 -30 -5 -16 -6 -30 -2 -30 4 0 2 -4 -4 -8 -6 -4 -14 -17 -18 -29 -6
-17 -3 -20 12 -16 17 4 19 -1 17 -49 -1 -29 3 -56 9 -60 7 -5 5 -13 -5 -25
-32 -38 -41 -67 -30 -97 6 -15 11 -38 11 -52 0 -22 20 -66 55 -123 6 -9 27
-44 48 -78 46 -76 81 -106 141 -123 40 -11 44 -15 35 -31 -5 -11 -7 -19 -5
-19 3 0 1 -11 -4 -25 -6 -15 -6 -25 0 -25 11 0 10 -59 -2 -66 -13 -8 -9 -34 5
-34 7 0 14 -10 14 -22 1 -13 5 -33 8 -45 3 -13 1 -23 -5 -23 -5 0 -10 5 -10
10 0 6 -4 10 -10 10 -5 0 -10 -8 -10 -18 0 -10 -5 -23 -12 -30 -11 -11 -2 -17
24 -14 3 1 9 -5 12 -14 3 -8 2 -12 -4 -9 -6 3 -10 1 -10 -4 0 -6 7 -11 15 -11
8 0 15 -4 15 -10 0 -5 -9 -10 -21 -10 -12 0 -19 -5 -16 -12 2 -7 11 -12 20
-12 12 1 15 -5 10 -27 -3 -16 -2 -36 2 -46 5 -10 9 -29 11 -43 2 -29 43 -180
52 -195 4 -5 7 -14 8 -20 5 -29 26 -66 39 -72 11 -4 14 -13 10 -32 -8 -36 31
-72 64 -59 13 4 27 6 32 2 5 -3 9 -1 9 5 0 6 9 15 20 21 19 10 20 9 14 -14 -5
-20 -2 -25 18 -28 12 -2 37 3 53 12 17 8 39 16 50 17 34 6 47 26 31 48 -14 19
-14 19 -50 0 -19 -10 -38 -16 -42 -13 -7 7 60 38 82 38 10 0 13 7 8 24 -3 13
-1 27 5 30 6 4 11 18 11 30 0 13 6 35 13 50 14 26 15 139 2 199 -8 40 -36 109
-51 127 -6 8 -19 38 -29 65 -9 28 -23 60 -31 72 -8 12 -14 30 -14 40 0 14 -2
15 -9 4 -7 -11 -11 -10 -20 5 -11 21 -14 15 -12 -31 1 -27 0 -28 -12 -13 -8
10 -18 14 -22 10 -5 -4 -5 -1 -1 6 4 7 -3 26 -15 44 -16 22 -19 33 -11 36 7 2
10 8 7 12 -3 5 -13 6 -23 3 -15 -6 -15 -5 -3 10 19 24 -3 51 -36 42 -13 -3
-23 -1 -23 5 0 14 -57 13 -66 -2 -5 -7 -3 -8 7 -3 12 8 12 6 1 -8 -8 -9 -11
-21 -7 -27 3 -5 1 -10 -4 -10 -10 0 -15 17 -14 48 1 6 -5 12 -13 12 -20 0 -24
13 -8 35 11 15 17 16 26 7 19 -19 47 -14 71 15 12 14 32 35 45 47 12 11 20 26
18 33 -3 7 -1 15 3 17 5 3 6 17 3 31 -3 17 0 25 10 25 8 0 25 12 38 27 19 23
23 37 23 102 0 42 -3 92 -7 111 -4 19 -8 42 -10 50 -1 8 -5 22 -8 30 -4 8 -11
37 -18 65 -6 27 -16 55 -22 62 -5 7 -7 17 -3 22 3 6 -1 23 -9 39 -8 16 -13 32
-10 34 14 15 -38 168 -58 168 -4 0 -15 14 -23 30 -9 17 -21 30 -28 29 -7 -1
-19 -1 -27 0 -13 1 -13 2 0 11 19 12 7 23 -24 23 -14 0 -24 5 -23 11 1 6 -5
12 -13 12 -32 3 -35 5 -21 13 11 7 10 14 -5 37 -10 16 -23 32 -29 36 -5 4 -7
8 -2 8 4 0 0 14 -8 31 -9 17 -19 28 -22 25 -4 -3 -11 -2 -17 3 -6 4 -24 5 -39
0z"/>
<path d="M7234 7622 c3 -5 1 -12 -6 -14 -8 -3 -9 -6 -1 -11 6 -4 13 0 17 8 3
8 0 17 -6 21 -6 4 -8 3 -4 -4z"/>
<path d="M7177 7585 c-4 -8 -2 -17 2 -20 5 -2 11 4 14 15 6 23 -8 27 -16 5z"/>
<path d="M3413 7569 c-2 -25 12 -32 27 -15 9 12 7 17 -7 25 -15 8 -19 6 -20
-10z"/>
<path d="M5010 7570 c0 -5 5 -10 10 -10 6 0 10 5 10 10 0 6 -4 10 -10 10 -5 0
-10 -4 -10 -10z"/>
<path d="M3525 7560 c-3 -5 1 -10 9 -10 9 0 16 5 16 10 0 6 -4 10 -9 10 -6 0
-13 -4 -16 -10z"/>
<path d="M7200 7539 c0 -11 4 -17 10 -14 6 4 9 -3 7 -16 -1 -12 4 -23 11 -25
7 -1 8 0 2 3 -6 3 -6 11 -1 21 5 12 2 23 -11 35 -17 16 -18 16 -18 -4z"/>
<path d="M7100 7525 c-7 -9 -10 -18 -7 -21 3 -3 10 4 17 15 13 25 8 27 -10 6z"/>
<path d="M7182 7495 c4 -4 3 -14 -3 -21 -6 -7 -6 -15 -1 -18 6 -3 12 3 15 14
3 11 0 23 -6 27 -7 3 -9 3 -5 -2z"/>
<path d="M4996 7422 c-4 -13 -5 -26 -2 -29 10 -11 18 4 14 29 l-4 23 -8 -23z"/>
<path d="M4980 7359 c0 -5 5 -7 10 -4 6 3 10 8 10 11 0 2 -4 4 -10 4 -5 0 -10
-5 -10 -11z"/>
<path d="M1515 7300 c-3 -5 -1 -10 4 -10 6 0 11 5 11 10 0 6 -2 10 -4 10 -3 0
-8 -4 -11 -10z"/>
<path d="M7125 7270 c-3 -5 -1 -10 4 -10 6 0 11 5 11 10 0 6 -2 10 -4 10 -3 0
-8 -4 -11 -10z"/>
<path d="M7134 7242 c-15 -10 -37 -52 -27 -52 4 0 16 14 25 30 18 32 19 33 2
22z"/>
<path d="M7082 7158 c-15 -15 -16 -38 -1 -38 5 0 8 4 5 9 -3 5 1 11 9 15 16 6
21 26 7 26 -4 0 -13 -5 -20 -12z"/>
<path d="M1480 7151 c0 -5 5 -13 10 -16 6 -3 10 -2 10 4 0 5 -4 13 -10 16 -5
3 -10 2 -10 -4z"/>
<path d="M1501 6994 c0 -11 3 -14 6 -6 3 7 2 16 -1 19 -3 4 -6 -2 -5 -13z"/>
<path d="M4619 6818 c-23 -25 -29 -41 -27 -66 2 -20 -3 -36 -12 -42 -11 -7
-11 -11 -1 -24 7 -9 11 -22 8 -30 -4 -11 2 -12 29 -6 43 10 74 3 67 -16 -9
-24 11 -15 23 10 8 17 8 28 1 35 -13 13 -18 139 -6 147 19 11 7 24 -22 24 -21
0 -39 -9 -60 -32z"/>
<path d="M6563 6803 c-7 -2 -13 -11 -13 -19 0 -8 -5 -14 -11 -14 -6 0 -8 -7
-5 -16 3 -8 2 -12 -4 -9 -6 3 -10 -1 -10 -10 0 -8 -9 -23 -19 -32 -11 -9 -18
-20 -15 -25 3 -4 -2 -8 -10 -8 -21 0 -20 12 3 41 21 28 36 69 24 69 -16 0 -31
-16 -51 -52 -29 -52 -31 -73 -7 -73 11 0 19 -5 19 -10 -3 -23 -39 -105 -46
-105 -4 0 -8 -4 -8 -10 0 -5 5 -9 12 -7 6 1 14 -7 16 -18 3 -16 1 -18 -9 -7
-20 19 -31 14 -17 -8 11 -16 10 -23 -6 -37 -17 -17 -18 -17 -11 5 4 16 2 22
-8 22 -13 0 -70 -99 -67 -116 1 -3 -7 -12 -17 -20 -10 -7 -14 -14 -9 -14 4 0
2 -10 -6 -22 -21 -33 -30 -86 -18 -109 6 -10 7 -19 2 -19 -4 0 -7 -17 -7 -37
1 -24 5 -37 13 -35 7 1 12 -4 12 -12 0 -8 16 -20 36 -26 20 -7 52 -23 72 -36
19 -13 39 -24 45 -24 6 0 19 -8 29 -17 15 -13 26 -15 55 -7 47 11 64 49 43 90
-14 25 -13 27 20 55 19 16 29 29 23 29 -7 0 -13 -5 -13 -11 0 -5 -5 -7 -12 -3
-7 5 -5 12 8 22 13 10 15 16 6 19 -6 3 -9 9 -6 14 3 6 11 5 20 -2 15 -12 16
-9 16 41 0 14 5 28 10 31 5 3 10 17 12 30 1 13 8 37 14 52 7 16 10 32 7 37 -3
4 4 18 14 32 11 13 21 33 23 43 1 11 11 29 20 39 10 10 15 23 12 27 -2 4 1 11
7 14 5 4 8 13 5 21 -3 8 -2 34 3 59 6 30 5 46 -3 49 -6 2 -4 5 5 5 9 1 16 8
16 15 0 11 -5 13 -19 5 -10 -5 -18 -6 -18 -2 0 4 -5 2 -12 -5 -17 -17 -25 -15
-31 8 -3 11 -1 20 4 20 16 0 10 20 -8 27 -10 4 -27 16 -38 26 -31 30 -66 41
-92 30z m167 -283 c0 -5 -5 -10 -11 -10 -5 0 -7 5 -4 10 3 6 8 10 11 10 2 0 4
-4 4 -10z"/>
<path d="M6660 6793 c1 -18 80 -64 100 -58 12 4 20 2 20 -6 0 -8 4 -8 15 1 13
11 12 15 -12 27 -20 10 -29 11 -31 3 -3 -7 -12 -4 -26 8 -23 22 -66 38 -66 25z"/>
<path d="M4577 6521 c-16 -18 -12 -37 11 -63 12 -14 12 -18 2 -18 -9 0 -7 -5
6 -15 19 -15 19 -15 -2 -33 -11 -9 -19 -23 -16 -31 4 -11 6 -11 13 0 4 7 11
11 14 7 4 -3 -1 -18 -11 -33 -13 -20 -14 -29 -5 -38 9 -9 14 -9 20 2 5 7 11 9
14 5 7 -13 2 -46 -13 -79 -7 -16 -14 -41 -15 -55 -1 -14 -7 -38 -14 -53 -6
-16 -11 -33 -11 -38 0 -5 -4 -17 -9 -27 -17 -34 -30 -67 -32 -82 -3 -30 1 -60
9 -59 4 1 14 1 22 0 12 -1 13 -3 1 -10 -9 -6 -10 -11 -2 -15 13 -8 45 20 37
32 -3 5 2 18 10 28 14 17 15 17 10 2 -6 -19 9 -25 19 -8 3 5 13 6 23 3 9 -3
14 -3 10 1 -3 4 -2 21 2 38 8 24 6 29 -5 24 -9 -3 -15 1 -15 11 0 13 -3 13
-15 3 -10 -9 -15 -9 -15 -1 0 6 5 11 10 11 6 0 16 11 22 25 14 31 32 33 23 3
-7 -22 -6 -22 12 2 10 14 18 27 18 30 0 3 4 11 8 18 5 6 5 12 0 12 -4 0 0 5
10 11 14 8 16 14 6 25 -9 11 -8 15 3 19 10 4 13 15 10 31 -3 17 0 24 11 24 19
0 33 38 20 51 -23 23 -52 -17 -67 -91 -12 -58 -20 -80 -27 -80 -5 0 -9 7 -9
15 0 8 -5 15 -11 15 -8 0 -10 14 -6 40 4 32 2 40 -10 40 -13 0 -13 3 -3 15 7
8 9 15 5 15 -4 0 4 19 17 43 26 45 26 49 14 85 -5 15 -3 29 6 39 7 9 12 18 10
20 -2 3 -1 7 2 11 6 5 8 -6 10 -50 1 -10 5 -18 9 -18 4 0 6 1 6 3 -1 1 6 19
14 39 8 20 15 43 13 50 -3 22 -17 39 -27 33 -5 -4 -9 -1 -9 5 0 6 -8 10 -17 9
-10 -1 -21 0 -25 1 -5 1 -12 4 -18 5 -5 1 -11 4 -12 5 -10 10 -50 4 -61 -9z
m83 -535 c0 -3 -4 -8 -10 -11 -5 -3 -10 -1 -10 4 0 6 5 11 10 11 6 0 10 -2 10
-4z"/>
<path d="M4810 6497 c0 -4 -4 -6 -9 -2 -20 12 -36 -41 -19 -62 14 -17 28 -16
28 1 0 9 7 12 20 9 14 -4 21 1 25 20 4 14 4 30 1 36 -8 12 -46 10 -46 -2z"/>
<path d="M4760 6379 c0 -5 5 -7 10 -4 6 3 10 8 10 11 0 2 -4 4 -10 4 -5 0 -10
-5 -10 -11z"/>
<path d="M4681 6248 c-16 -43 -22 -98 -11 -98 5 0 10 3 11 8 4 46 7 71 13 90
10 29 -2 29 -13 0z"/>
<path d="M1738 6242 c-3 -10 1 -27 8 -37 12 -16 14 -16 20 -2 8 21 2 49 -12
54 -6 2 -14 -5 -16 -15z"/>
<path d="M3272 6242 c1 -9 -2 -38 -6 -64 -4 -27 -3 -48 1 -48 5 0 9 -8 9 -18
0 -14 -7 -18 -27 -17 -19 1 -26 -2 -22 -12 4 -10 9 -11 19 -2 19 16 34 2 34
-33 0 -23 -4 -29 -15 -24 -11 4 -15 -2 -15 -21 0 -26 1 -26 15 -7 13 18 14 16
14 -21 -1 -22 -3 -33 -6 -24 -2 10 -13 19 -25 22 -17 5 -20 12 -16 41 2 20 0
36 -4 36 -8 0 -12 -23 -9 -48 1 -7 -2 -12 -6 -11 -24 4 -35 -2 -29 -17 4 -11
-1 -18 -14 -21 -11 -3 -20 -9 -20 -15 0 -5 8 -4 19 2 25 13 34 13 26 0 -8 -13
-17 -51 -17 -72 1 -10 -5 -15 -13 -12 -7 3 -16 0 -20 -5 -3 -6 -11 -9 -16 -5
-10 6 -42 -30 -45 -51 -1 -5 -20 -63 -43 -128 -22 -64 -40 -118 -40 -120 1 -1
-2 -18 -6 -38 -4 -22 -2 -46 5 -58 9 -18 7 -28 -8 -54 -11 -18 -18 -37 -15
-44 2 -7 -1 -22 -7 -34 -10 -17 -9 -20 1 -14 9 6 10 3 4 -11 -4 -10 -8 -28 -9
-39 -1 -11 -5 -25 -9 -32 -4 -7 0 -17 11 -25 19 -13 38 -54 34 -74 -1 -6 9
-21 23 -34 14 -13 25 -29 25 -36 0 -6 31 -45 70 -85 62 -65 70 -76 68 -110 -1
-24 6 -46 20 -64 12 -15 22 -34 22 -42 0 -29 25 -6 28 26 3 26 7 32 21 28 25
-6 50 10 61 39 5 13 26 31 47 40 26 12 50 35 77 75 21 33 42 59 46 59 4 0 10
9 13 21 4 13 10 18 18 13 8 -5 11 -1 7 12 -3 11 1 25 9 32 7 7 13 21 13 32 0
10 5 22 10 25 6 3 10 19 10 35 0 16 3 31 8 33 9 6 8 168 -1 183 -3 6 -7 27 -9
47 -1 21 -5 37 -9 37 -3 0 -10 15 -14 33 -9 38 -7 30 -28 92 -9 28 -21 72 -27
100 -6 27 -17 63 -24 80 -18 40 -27 65 -32 93 -3 13 -29 72 -58 130 -30 59
-57 118 -61 132 -9 36 -28 72 -47 92 -15 15 -17 15 -16 0z m23 -22 c3 -5 1
-10 -4 -10 -6 0 -11 5 -11 10 0 6 2 10 4 10 3 0 8 -4 11 -10z"/>
<path d="M3141 5898 c-1 -14 -7 -29 -13 -31 -7 -3 -8 -6 -3 -6 6 0 16 3 24 8
12 8 12 14 4 33 l-12 23 0 -27z"/>
<path d="M6120 5720 c-8 -5 -11 -10 -6 -10 5 0 -3 -9 -18 -21 -14 -11 -26 -29
-26 -40 0 -10 -20 -38 -45 -61 -25 -23 -45 -51 -45 -61 0 -10 -8 -30 -17 -44
-17 -26 -17 -27 0 -20 22 8 22 -4 -2 -30 -11 -11 -24 -37 -30 -58 -8 -31 -7
-36 5 -31 8 3 14 1 14 -4 0 -5 7 -7 15 -4 12 5 14 0 9 -27 -4 -19 -11 -42 -16
-51 -6 -13 -5 -18 6 -18 10 0 12 -7 8 -22 -3 -14 -2 -19 6 -14 7 4 12 16 12
27 0 10 4 19 9 19 20 0 20 -19 0 -44 -17 -22 -19 -29 -8 -42 9 -11 14 -12 19
-3 4 6 19 12 33 12 20 0 27 7 38 41 16 53 19 57 29 51 5 -3 2 -21 -6 -40 -8
-21 -10 -36 -4 -40 5 -3 7 -20 3 -37 -4 -23 -3 -29 6 -24 7 4 10 13 8 19 -2 6
4 20 14 31 10 10 21 32 24 47 4 16 11 29 16 29 11 0 11 2 -1 -40 l-10 -35 29
31 c29 30 38 51 47 101 6 30 22 45 39 36 5 -4 2 3 -8 14 -16 18 -16 22 -2 33
8 7 15 21 15 32 0 11 4 16 11 12 8 -4 9 0 4 15 -4 12 -2 21 4 21 6 0 8 7 5 15
-5 11 -2 13 10 9 11 -4 15 -13 11 -25 -4 -11 -2 -19 4 -19 6 0 12 6 12 13 1 6
3 22 4 35 1 12 10 31 20 42 10 11 15 23 12 26 -3 4 -2 15 4 26 9 16 7 20 -10
25 -12 3 -21 9 -21 13 0 9 -60 34 -73 31 -4 -1 -19 11 -32 25 -15 17 -32 25
-43 22 -10 -3 -27 1 -37 8 -22 16 -25 17 -45 4z"/>
<path d="M4881 5637 c-6 -8 -9 -23 -5 -33 4 -13 3 -15 -3 -6 -7 10 -14 8 -28
-8 -10 -11 -22 -20 -28 -20 -5 0 -23 -11 -39 -25 -16 -14 -35 -22 -41 -18 -7
3 -9 3 -5 -2 6 -6 -40 -53 -52 -52 -8 1 -184 -185 -208 -220 -36 -51 -62 -141
-63 -215 -1 -78 3 -88 34 -83 12 2 51 6 87 9 36 3 75 9 85 13 42 18 95 55 89
64 -3 5 1 9 9 9 15 0 61 47 91 95 11 17 25 36 33 43 21 22 35 86 49 237 3 39
8 79 10 90 18 94 11 152 -15 122z m-301 -292 c0 -2 -10 -10 -22 -16 -21 -11
-22 -11 -9 4 13 16 31 23 31 12z"/>
<path d="M2022 5533 c-6 -3 -9 -9 -6 -15 4 -6 1 -14 -5 -18 -9 -5 -8 -11 4
-24 9 -9 21 -14 26 -11 17 11 9 -14 -10 -32 -20 -19 -15 -46 9 -49 5 -1 13 -2
16 -3 4 0 0 -8 -7 -17 -12 -15 -11 -16 10 -9 17 5 22 4 18 -6 -2 -8 -9 -13
-14 -12 -5 1 -7 -14 -5 -33 2 -19 7 -34 12 -34 7 0 11 -55 11 -157 0 -32 -8
-66 -20 -88 -23 -43 -16 -86 23 -145 14 -22 26 -42 26 -45 0 -3 16 -20 36 -37
19 -17 42 -44 50 -59 18 -36 46 -51 98 -52 50 0 116 11 117 21 9 72 6 101 -18
149 -14 29 -34 60 -45 69 -10 10 -18 25 -18 35 0 10 -8 23 -17 28 -14 8 -15
13 -5 19 17 11 5 40 -19 47 -15 5 -17 13 -13 48 3 23 7 47 9 54 2 7 -7 21 -19
31 -22 16 -22 19 -8 29 14 8 14 13 5 25 -7 8 -10 18 -7 21 3 3 2 12 -2 19 -9
14 -12 25 -19 71 -2 15 -8 33 -12 40 -11 18 -15 97 -4 97 5 0 12 -6 14 -12 3
-7 6 -4 6 7 1 25 -14 51 -23 37 -3 -5 -18 -8 -33 -6 -15 1 -33 -2 -39 -7 -8
-6 -13 -5 -17 4 -3 8 -16 13 -29 12 -12 -1 -32 1 -43 5 -11 4 -26 5 -33 3z
m60 -235 c-9 -9 -12 -7 -12 12 0 19 3 21 12 12 9 -9 9 -15 0 -24z"/>
<path d="M6270 5380 c0 -5 5 -10 10 -10 6 0 10 5 10 10 0 6 -4 10 -10 10 -5 0
-10 -4 -10 -10z"/>
<path d="M4374 5241 c3 -5 -3 -11 -14 -14 -12 -3 -20 -14 -20 -25 0 -12 -5
-24 -10 -27 -7 -4 -7 -12 0 -25 14 -27 12 -51 -6 -71 -14 -16 -15 -20 0 -40
14 -20 13 -24 -4 -47 -11 -13 -17 -29 -13 -36 10 -15 4 -49 -10 -58 -14 -8
-46 23 -40 38 2 7 0 15 -5 18 -15 9 -20 -63 -6 -75 7 -6 27 -11 44 -11 33 -1
53 -17 23 -19 -10 -1 -24 -1 -30 0 -7 1 -21 -3 -32 -8 -17 -10 -20 -6 -26 39
-4 28 -11 52 -16 56 -5 3 -9 0 -9 -5 0 -6 -5 -10 -12 -8 -7 1 -13 -15 -15 -43
-2 -25 -9 -49 -15 -55 -8 -7 -9 -5 -5 8 4 11 2 17 -6 16 -26 -3 -35 2 -40 22
-5 18 -8 19 -20 8 -8 -8 -14 -15 -12 -17 4 -4 -33 -42 -40 -42 -3 0 0 10 6 23
12 21 11 21 -6 7 -53 -43 -77 -69 -71 -79 4 -5 -7 -20 -24 -32 -16 -13 -30
-31 -30 -42 0 -17 2 -18 17 -6 10 8 0 -9 -22 -37 -22 -29 -43 -50 -48 -47 -7
4 -3 -53 6 -102 2 -11 2 -14 0 -8 -3 9 -10 10 -23 3 -20 -11 -41 -10 -50 2 -3
4 -15 5 -27 2 -15 -4 -19 -11 -15 -27 5 -20 4 -20 -11 -8 -11 9 -17 10 -17 2
0 -7 -9 -9 -25 -5 -18 4 -25 2 -25 -8 0 -32 75 -70 153 -77 5 -1 6 -5 3 -10
-4 -5 -23 -5 -47 0 -22 5 -44 7 -49 4 -5 -3 -15 2 -24 11 -9 8 -20 13 -25 10
-13 -9 -7 -51 8 -48 7 1 26 -9 42 -23 17 -13 45 -32 64 -41 19 -9 35 -20 35
-25 0 -9 -31 0 -40 11 -3 3 -26 18 -51 32 -55 32 -84 24 -46 -13 13 -13 33
-29 43 -36 16 -10 16 -12 3 -12 -9 -1 -22 6 -29 14 -30 36 -53 9 -41 -47 5
-19 7 -51 6 -70 -2 -20 1 -41 5 -48 5 -8 0 -21 -11 -34 -11 -11 -17 -26 -15
-33 3 -7 1 -15 -5 -18 -5 -4 -7 -10 -4 -15 3 -5 1 -18 -4 -28 -18 -33 8 -56
55 -49 21 4 56 8 76 11 68 8 103 18 145 41 23 13 50 22 60 20 10 -1 26 2 36 7
10 5 17 5 17 0 0 -12 -56 -36 -68 -28 -5 3 -24 -8 -42 -24 -19 -17 -40 -30
-47 -30 -7 0 -13 -4 -13 -10 0 -5 8 -10 18 -10 14 0 13 -4 -7 -19 -19 -15 -22
-21 -12 -38 8 -17 7 -22 -4 -27 -8 -3 -15 -12 -15 -19 0 -8 -9 -26 -21 -40
-11 -15 -19 -32 -17 -39 4 -19 -39 -71 -47 -58 -13 22 -34 -11 -41 -66 -3 -30
-11 -54 -16 -54 -6 0 -8 16 -6 35 3 27 1 32 -9 23 -7 -6 -13 -16 -13 -23 0 -8
-8 -11 -20 -8 -11 3 -20 0 -20 -6 0 -6 -4 -11 -10 -11 -5 0 -10 6 -10 13 0 7
-17 19 -37 26 -21 8 -44 20 -51 28 -8 7 -22 11 -32 8 -14 -4 -20 1 -25 25 -4
16 -9 30 -13 30 -14 0 -72 -46 -72 -57 0 -7 -7 -16 -16 -21 -14 -8 -12 -12 12
-29 41 -29 111 -63 129 -63 8 0 15 -5 15 -11 0 -13 -29 -4 -102 32 -69 35 -92
37 -83 9 5 -14 2 -18 -8 -15 -7 3 -26 -1 -41 -9 l-27 -14 28 -26 c31 -29 25
-34 -11 -11 -30 20 -128 56 -134 50 -3 -2 -23 6 -46 19 -22 12 -48 20 -56 18
-13 -5 -13 -3 -1 11 12 15 11 17 -10 15 -15 -2 -23 2 -21 10 1 6 -5 12 -13 12
-9 0 -12 6 -9 15 8 21 -26 20 -71 -2 -35 -17 -53 -14 -40 6 3 6 17 11 30 11
13 0 27 5 30 10 3 6 15 10 26 10 11 0 18 4 14 9 -5 8 -60 7 -120 -4 -11 -2
-25 -4 -31 -4 -6 -1 -16 -11 -22 -23 -11 -23 -11 -23 -11 -2 -1 12 -9 25 -18
30 -23 10 -82 7 -97 -5 -15 -12 -57 -16 -78 -7 -10 5 -43 6 -74 3 -58 -5 -119
6 -129 23 -4 6 30 9 85 7 51 -1 94 1 96 5 5 7 71 1 86 -8 4 -3 42 5 85 17 43
12 106 22 141 23 48 1 66 5 73 18 6 11 6 19 -1 23 -8 5 -8 11 0 20 6 7 9 25 6
39 -6 32 12 34 44 6 13 -11 27 -20 32 -20 4 0 23 -14 41 -31 30 -29 35 -31 82
-24 28 4 93 8 145 9 71 1 104 6 130 20 36 18 93 86 110 131 5 14 13 25 17 25
5 1 18 9 31 20 50 41 44 128 -6 101 -19 -10 -22 -9 -22 10 0 15 5 19 15 15 8
-3 15 -1 15 4 0 6 5 10 11 10 5 0 7 -4 4 -10 -3 -5 -1 -10 4 -10 6 0 11 6 12
13 4 56 7 69 17 79 17 17 15 43 -3 58 -12 10 -19 10 -27 2 -16 -16 -29 -15
-25 0 1 7 14 18 30 25 28 12 36 38 15 45 -9 3 -8 9 5 22 9 10 17 19 17 22 0 2
-27 31 -60 63 -33 33 -60 64 -60 70 0 6 -7 11 -15 11 -8 0 -23 9 -32 20 -10
11 -23 20 -29 20 -7 0 -14 5 -16 11 -6 19 -40 -2 -35 -22 6 -23 3 -24 -18 -2
-13 13 -18 14 -25 3 -6 -9 -9 -8 -14 6 -3 11 -5 22 -3 25 4 11 -33 40 -44 34
-6 -5 -10 0 -8 11 3 27 -11 54 -27 54 -8 0 -14 -4 -14 -10 0 -16 -18 -12 -40
10 -11 11 -38 22 -61 25 -38 5 -40 4 -33 -18 6 -21 5 -21 -12 -6 -31 25 -68
37 -90 28 -22 -8 -41 -39 -24 -39 6 0 10 -5 10 -10 0 -6 -8 -10 -17 -8 -14 2
-17 -3 -15 -22 2 -14 -1 -20 -5 -15 -4 6 -18 12 -31 12 -19 2 -21 -1 -12 -12
7 -8 17 -12 23 -8 6 3 7 1 3 -5 -4 -7 -1 -12 6 -12 10 0 10 -2 -1 -9 -9 -6
-23 -4 -38 6 -21 14 -23 14 -23 -3 -1 -15 -4 -13 -16 9 -18 32 -29 34 -44 6
-11 -19 -13 -20 -30 -4 -25 23 -89 36 -112 24 -24 -13 -24 6 0 20 24 15 5 14
-21 -1 -36 -20 -51 -15 -80 29 -38 57 -50 65 -105 69 -44 3 -52 0 -92 -36 -23
-21 -49 -36 -57 -33 -11 4 -11 8 -1 21 11 13 9 14 -17 8 -34 -9 -54 -28 -73
-69 -15 -35 -15 -37 1 -37 21 0 18 -37 -4 -43 -17 -5 -18 -9 -8 -33 9 -25 7
-31 -10 -45 -21 -17 -34 -78 -21 -99 6 -9 13 -9 30 0 32 17 36 5 5 -16 -22
-14 -26 -23 -21 -46 3 -16 2 -27 -3 -24 -10 7 -34 -18 -25 -26 3 -4 -4 -24
-15 -47 -12 -22 -21 -51 -21 -64 0 -14 -7 -30 -15 -37 -8 -7 -15 -19 -15 -27
0 -8 -8 -27 -19 -41 -23 -34 -56 -174 -53 -227 4 -66 30 -113 68 -124 38 -11
76 -41 51 -41 -19 0 -41 -26 -33 -39 7 -11 49 3 77 26 17 14 49 18 49 5 0 -11
-32 -29 -68 -37 -18 -4 -38 -15 -45 -26 -6 -10 -18 -19 -25 -19 -8 0 -12 -6
-9 -14 4 -9 -7 -29 -24 -47 -16 -17 -22 -29 -14 -25 9 3 15 0 15 -10 0 -10 -6
-14 -15 -10 -12 4 -14 -1 -11 -29 2 -19 7 -39 11 -45 4 -6 1 -17 -5 -25 -7 -8
-8 -15 -3 -15 6 0 10 -12 10 -27 0 -16 3 -44 6 -63 3 -20 0 -41 -6 -49 -10
-12 -9 -13 2 -6 11 6 13 4 6 -11 -11 -28 -13 -74 -3 -74 5 0 7 -9 3 -19 -6
-20 25 -62 55 -74 8 -4 1 -4 -17 -1 -18 3 -34 0 -38 -6 -13 -21 -12 -230 1
-248 9 -12 9 -21 2 -29 -6 -7 -12 -32 -14 -55 -2 -24 -5 -58 -7 -75 -2 -18 0
-33 4 -33 4 0 4 -15 0 -33 -5 -18 -6 -39 -5 -47 2 -8 5 -24 6 -35 2 -11 10
-26 18 -32 12 -10 12 -14 2 -21 -10 -7 -10 -15 -2 -36 13 -34 13 -39 0 -31 -5
3 -10 -1 -10 -9 0 -9 7 -16 16 -16 15 0 15 -3 -1 -26 -11 -17 -13 -29 -7 -33
6 -4 10 -25 8 -48 -3 -34 0 -40 13 -35 13 5 14 3 3 -10 -10 -12 -10 -18 2 -27
10 -8 14 -26 12 -49 -2 -20 1 -59 7 -87 6 -27 10 -56 8 -62 -1 -7 2 -13 7 -13
6 0 13 -17 16 -37 11 -70 14 -80 34 -126 11 -25 18 -47 16 -50 -8 -8 29 -131
48 -159 11 -15 21 -36 23 -45 5 -25 47 -104 76 -145 38 -53 71 -77 106 -78 28
0 52 14 41 25 -4 4 -39 12 -60 14 -5 1 -8 9 -8 19 0 13 2 14 9 3 5 -8 18 -12
30 -8 12 3 27 0 34 -6 16 -15 37 -20 37 -9 0 9 50 35 56 29 2 -1 -3 -16 -11
-31 -13 -25 -13 -27 0 -22 15 5 73 -10 88 -24 5 -4 -11 -8 -36 -8 -49 -1 -109
-10 -116 -18 -3 -3 1 -9 9 -14 24 -15 1 -25 -30 -13 -38 14 -50 -1 -21 -26 12
-10 21 -23 21 -28 0 -6 19 -14 43 -18 41 -8 41 -8 12 -14 -20 -4 -26 -9 -17
-14 6 -5 16 -6 21 -3 11 7 41 -3 41 -14 0 -5 -9 -6 -20 -3 -11 3 -20 3 -20 0
0 -17 102 -109 131 -119 19 -6 37 -16 41 -21 3 -6 23 -11 44 -11 21 -1 39 -7
42 -14 2 -7 -2 -10 -11 -6 -8 3 -18 1 -22 -5 -4 -7 5 -11 25 -11 17 0 29 -4
26 -9 -3 -4 -17 -6 -31 -3 -14 2 -25 0 -25 -4 0 -20 17 -31 52 -37 32 -5 37
-3 42 19 4 13 13 24 21 24 8 0 15 7 15 15 0 8 8 15 18 15 10 0 23 5 28 10 7 7
10 0 10 -24 -1 -22 -5 -31 -10 -25 -18 17 -38 10 -31 -11 5 -14 2 -20 -9 -20
-9 0 -16 -7 -16 -15 0 -8 -5 -15 -11 -15 -5 0 -7 -5 -3 -12 5 -8 2 -9 -9 -5
-10 3 -17 2 -17 -3 0 -6 7 -10 15 -10 8 0 15 -6 15 -14 0 -8 7 -17 16 -20 12
-5 15 -2 10 10 -5 12 -2 15 11 9 10 -4 26 -8 37 -11 10 -2 21 -6 25 -10 3 -4
-9 -4 -27 -1 -21 4 -31 3 -27 -3 9 -15 51 -12 64 4 9 11 9 15 -1 18 -7 3 -13
13 -13 24 0 10 -8 20 -18 22 -15 3 -18 0 -12 -18 6 -19 4 -21 -17 -15 -12 4
-27 12 -33 18 -7 7 -5 8 7 4 10 -3 20 -2 23 3 4 6 -1 10 -10 10 -9 0 -14 4
-11 8 7 11 73 7 110 -7 24 -10 27 -9 22 4 -3 9 0 15 10 15 8 0 12 -5 9 -10 -3
-6 0 -10 7 -11 42 -3 66 -8 89 -17 43 -17 134 -5 196 27 22 11 43 17 46 14 23
-23 157 125 157 173 0 6 7 17 16 25 10 8 14 23 12 40 -3 16 -1 26 3 23 16 -10
39 9 34 27 -4 11 -2 19 4 19 6 0 9 -20 8 -45 -2 -42 -6 -49 -24 -42 -7 2 -25
-54 -19 -60 2 -2 11 -1 20 3 11 4 15 13 11 28 -6 21 -6 21 11 1 16 -20 16 -20
9 3 -4 14 -2 22 5 22 7 0 10 7 6 15 -3 8 -2 25 3 37 10 27 -5 74 -60 189 -5
10 -1 22 12 33 28 23 34 20 35 -17 2 -58 13 -110 24 -121 9 -8 11 -7 9 4 -2 8
6 33 18 55 11 22 24 69 28 105 4 36 8 72 10 80 2 8 6 31 9 50 4 19 9 46 11 60
3 14 7 35 9 46 3 12 1 38 -4 57 -4 20 -4 37 1 39 5 2 4 10 -1 18 -8 13 -10 12
-10 -4 0 -12 -5 -16 -16 -12 -9 3 -18 6 -20 6 -2 0 -4 10 -4 23 0 15 3 18 8 9
5 -7 16 -10 25 -6 13 5 14 10 5 30 -6 13 -13 22 -16 20 -2 -3 -13 4 -25 15
-25 23 -37 24 -37 4 0 -8 -6 -12 -14 -9 -7 3 -20 -2 -29 -10 -17 -17 -37 -21
-37 -8 0 5 10 17 21 28 12 10 27 32 34 49 12 26 10 32 -10 60 -12 16 -20 36
-17 44 3 8 0 11 -6 7 -14 -8 -52 10 -52 26 0 7 5 6 15 -2 29 -24 38 3 16 44
-12 20 -21 43 -21 51 0 8 -3 15 -8 15 -4 0 -7 55 -8 123 0 68 -5 131 -11 141
-6 11 -7 35 -2 63 8 39 6 87 -4 144 -2 9 -19 50 -39 90 -82 170 -108 228 -108
243 0 9 -4 16 -9 16 -5 0 -21 26 -37 58 -30 62 -42 75 -63 67 -8 -3 -11 0 -8
9 8 20 -13 74 -48 124 -83 119 -147 202 -156 202 -6 0 -8 8 -4 19 4 14 -8 32
-42 67 -41 42 -73 90 -73 111 0 3 18 -17 40 -43 22 -27 44 -49 48 -50 24 -3
40 -17 35 -31 -5 -13 -2 -15 15 -11 17 5 22 2 22 -14 0 -11 33 -70 74 -132 40
-61 81 -125 89 -142 9 -16 27 -36 42 -42 20 -9 25 -17 20 -32 -6 -20 6 -52 33
-83 9 -10 17 -28 19 -40 2 -12 13 -31 25 -44 11 -12 22 -32 24 -45 8 -66 84
-238 104 -238 9 0 6 99 -5 140 -5 20 -4 22 4 10 16 -22 33 7 19 33 -7 13 -7
22 1 30 14 14 14 98 0 134 -7 15 -11 38 -10 51 0 13 -6 36 -14 52 -8 15 -14
41 -13 56 1 16 0 36 -3 44 -2 8 3 15 11 16 8 0 21 2 28 2 8 1 11 9 7 21 -4 14
0 21 13 25 16 5 20 20 25 78 3 39 10 75 15 80 6 6 6 23 0 44 -6 22 -5 40 1 52
10 16 10 16 11 0 0 -27 38 -23 43 5 3 21 4 21 12 2 10 -23 30 -45 41 -45 4 0
13 8 20 17 7 10 16 15 20 11 4 -4 1 -14 -6 -23 -11 -13 -9 -15 14 -15 16 0 29
7 33 18 11 30 25 43 37 33 7 -6 21 4 41 30 17 21 35 38 42 39 27 1 22 21 -9
35 l-33 15 40 -6 c63 -11 88 -6 111 20 12 13 32 26 45 28 19 2 24 9 22 31 -1
18 3 27 13 27 8 0 14 4 14 9 0 5 7 8 16 7 11 0 22 12 30 34 7 19 13 29 13 21
1 -7 7 -11 16 -7 8 3 15 0 15 -6 0 -7 6 -3 14 8 8 10 18 19 23 19 31 0 61 62
67 138 2 29 7 60 11 69 5 12 2 20 -9 24 -25 10 -19 25 8 18 20 -5 24 -1 30 26
7 39 1 50 -27 50 -12 0 -29 5 -37 10 -12 8 -10 10 11 10 14 0 30 5 37 12 9 9
12 9 12 0 0 -13 29 -17 31 -4 0 4 2 24 3 44 2 21 7 43 13 50 12 16 15 58 4 58
-16 0 -29 -25 -35 -65 -7 -41 -26 -73 -26 -42 0 27 -1 31 -12 45 -6 7 -18 10
-27 7 -9 -3 0 10 18 29 19 20 40 36 46 36 6 0 18 9 28 20 19 23 47 26 65 8 17
-17 15 -26 -5 -24 -10 0 -18 -6 -19 -14 -1 -40 -17 -116 -26 -127 -5 -7 -8
-20 -6 -30 2 -10 -5 -26 -14 -35 -10 -10 -18 -33 -18 -51 0 -32 1 -33 98 -67
53 -19 90 -36 81 -38 -8 -1 -37 6 -63 18 -26 11 -57 20 -67 20 -11 0 -29 4
-39 10 -25 13 -39 -6 -45 -61 -7 -66 -12 -85 -29 -111 -9 -13 -14 -34 -11 -46
5 -27 31 -55 44 -48 11 7 51 -40 51 -60 0 -7 16 -21 35 -30 19 -9 35 -20 35
-25 0 -16 44 -28 58 -16 11 8 12 5 6 -17 -6 -23 -4 -27 12 -25 11 2 41 -3 67
-10 36 -10 57 -11 82 -4 27 9 46 6 102 -12 37 -13 71 -21 74 -19 6 3 33 8 122
21 28 4 43 0 58 -13 20 -18 22 -18 92 11 29 12 19 -9 -13 -28 -49 -29 -36 -68
14 -42 18 10 24 10 19 2 -4 -7 -8 -16 -8 -21 0 -5 -10 -11 -23 -13 -34 -5 -62
-22 -62 -38 0 -7 -8 -16 -17 -19 -10 -3 -33 -20 -50 -36 -33 -31 -39 -55 -35
-124 2 -23 -1 -27 -15 -21 -31 12 -38 10 -35 -7 1 -9 -6 -22 -16 -30 -29 -20
-35 -53 -18 -87 19 -36 20 -42 4 -39 -18 4 -23 -60 -7 -89 7 -13 18 -23 25
-23 23 0 64 -23 62 -34 -3 -14 21 -58 36 -68 6 -4 25 -33 41 -65 24 -47 35
-59 58 -61 15 -2 27 -9 27 -17 0 -8 11 -17 25 -21 25 -6 35 -24 14 -24 -8 0
-8 -5 1 -15 13 -16 53 -11 78 8 9 7 16 7 24 -1 9 -9 8 -12 -6 -12 -15 0 -16
-3 -6 -15 10 -12 10 -15 -3 -15 -9 0 -18 4 -21 8 -2 4 -22 6 -44 4 l-39 -4 9
-41 c10 -47 21 -57 63 -57 39 0 47 -34 10 -36 -14 -1 -23 1 -22 5 1 3 -2 6 -8
6 -5 0 -9 -3 -7 -7 1 -5 -7 -8 -17 -8 -33 0 -51 -11 -51 -31 0 -23 9 -27 74
-33 42 -3 50 -7 51 -25 2 -25 -10 -28 -19 -5 -4 11 -15 15 -36 12 -16 -3 -31
-1 -32 4 -2 5 -14 10 -27 11 -14 1 -26 9 -29 19 -5 22 -42 24 -42 3 0 -8 5
-15 10 -15 6 0 10 -4 10 -10 0 -5 -7 -10 -16 -10 -23 0 -11 -23 20 -39 25 -12
27 -15 13 -28 -12 -13 -13 -20 -4 -35 16 -25 -8 -42 -34 -25 -15 9 -22 7 -40
-11 -11 -13 -24 -21 -27 -17 -3 3 -1 10 6 17 8 8 5 15 -14 25 -15 7 -30 10
-35 7 -5 -3 -40 -7 -77 -10 -37 -2 -80 -7 -97 -9 -16 -3 -37 -6 -45 -6 -8 0
-22 -3 -30 -6 -8 -3 -25 -7 -38 -9 -30 -4 -52 -22 -63 -52 -7 -19 -12 -22 -22
-13 -10 8 -19 6 -35 -9 -12 -11 -25 -20 -30 -20 -10 0 -27 -38 -36 -80 -3 -14
-12 -34 -21 -45 -14 -18 -14 -17 0 19 20 50 20 80 0 42 -8 -15 -15 -35 -15
-43 0 -8 -7 -28 -16 -44 -19 -39 -13 -45 24 -26 17 8 46 13 66 10 20 -2 46 2
59 9 12 7 26 11 31 10 4 -2 15 3 23 10 16 13 32 17 81 20 38 2 40 5 10 18 -22
8 -22 9 5 9 15 1 27 -4 27 -10 0 -12 60 -5 70 9 3 4 39 8 80 9 68 2 73 1 56
-12 -11 -8 -25 -15 -30 -16 -6 0 -36 -2 -66 -4 -30 -2 -72 -10 -92 -19 -21 -9
-38 -13 -38 -10 0 4 -6 1 -13 -5 -8 -6 -16 -9 -18 -6 -3 2 -27 -2 -53 -10 -27
-8 -52 -12 -56 -10 -5 3 -11 1 -15 -4 -3 -5 -13 -10 -23 -10 -27 1 -67 -7 -79
-14 -6 -4 -14 -23 -17 -42 -4 -20 -11 -33 -17 -30 -6 4 -5 13 1 25 14 26 13
47 -1 33 -11 -11 -30 -148 -31 -220 0 -18 -4 -33 -9 -33 -5 0 -7 27 -4 63 3
34 7 85 9 114 3 29 7 57 11 63 3 5 2 10 -4 10 -14 0 -21 -13 -25 -50 -6 -51
-15 -46 -10 6 2 30 1 45 -5 39 -9 -9 -16 -58 -25 -168 -2 -21 -7 -41 -11 -45
-4 -4 -6 12 -3 36 2 23 1 42 -2 42 -3 0 -4 19 -2 43 3 23 0 38 -4 34 -5 -5
-10 -75 -10 -155 -2 -172 -2 -171 -12 -154 -13 19 -6 268 8 319 10 34 10 47 1
56 -9 9 -13 6 -17 -11 -4 -12 -11 -22 -16 -22 -5 0 -6 5 -3 10 3 6 1 10 -4 10
-6 0 -11 -7 -11 -15 0 -8 -7 -15 -15 -15 -9 0 -15 -9 -15 -24 0 -13 -7 -29
-15 -36 -11 -9 -15 -9 -15 -1 0 7 -4 9 -10 6 -15 -10 -12 -23 8 -28 13 -4 13
-5 2 -6 -9 0 -21 -16 -28 -35 -11 -30 -52 -58 -52 -35 0 13 -13 11 -33 -3 -10
-8 -21 -37 -27 -73 -5 -33 -18 -71 -28 -85 -10 -14 -22 -34 -25 -44 -4 -10
-11 -16 -14 -12 -4 4 0 21 9 39 36 75 54 197 29 205 -10 3 -12 0 -8 -11 4 -11
0 -14 -19 -12 -13 1 -24 -1 -24 -5 0 -9 -32 -6 -48 4 -15 9 -26 -16 -19 -43 2
-10 1 -25 -4 -32 -7 -11 -9 -9 -9 6 -1 19 -1 19 -11 1 -8 -13 -8 -25 0 -43 6
-13 8 -29 5 -35 -4 -6 -2 -8 3 -5 7 4 14 -12 18 -41 13 -79 14 -112 4 -112 -5
0 -8 3 -8 8 1 4 1 26 0 50 -1 30 -5 42 -16 42 -10 0 -15 10 -15 33 0 30 -24
67 -43 67 -8 0 4 -63 13 -70 4 -3 11 -16 15 -30 4 -14 23 -57 41 -97 19 -40
34 -82 34 -93 0 -12 4 -18 10 -15 6 4 8 16 4 27 -3 11 -1 24 5 27 6 4 13 18
16 30 8 40 16 61 25 61 5 0 11 14 15 30 4 17 11 28 15 25 5 -3 5 -18 -1 -33
-6 -15 -11 -39 -11 -54 0 -15 -4 -30 -9 -33 -5 -4 -9 -17 -9 -30 0 -13 -5 -27
-11 -31 -10 -6 -9 -67 1 -181 0 -2 5 -3 11 -3 5 0 7 5 4 10 -3 5 -2 10 3 10 5
0 13 -20 16 -45 4 -25 11 -45 16 -45 4 0 6 9 3 20 -3 11 0 20 6 20 9 0 17 -53
12 -82 0 -5 4 -8 10 -8 7 0 9 12 5 35 -4 19 -3 35 2 35 5 0 9 -19 10 -42 2
-52 10 -78 23 -78 6 0 7 5 4 10 -3 6 -2 10 3 10 6 0 16 -29 23 -65 7 -37 19
-67 27 -70 10 -4 13 0 9 15 -3 11 -1 20 4 20 5 0 12 -13 15 -28 6 -31 39 -58
49 -41 5 7 11 6 21 -2 10 -8 14 -8 14 0 0 19 17 12 23 -10 3 -12 10 -18 17
-14 6 4 20 -1 31 -11 17 -15 19 -15 19 -1 0 11 5 14 16 10 13 -5 15 -2 9 18
-7 23 -7 23 14 -3 13 -16 28 -25 36 -21 8 3 15 -1 15 -8 0 -7 3 -9 7 -6 3 4
13 2 20 -5 11 -9 16 -9 23 1 9 16 30 6 30 -15 0 -8 6 -15 13 -15 6 -1 23 -3
37 -4 14 -2 31 2 38 8 9 7 24 6 51 -2 57 -17 82 -14 88 9 5 20 7 20 24 4 15
-13 22 -14 33 -5 10 8 16 9 21 1 10 -16 52 -12 59 6 4 10 12 14 22 10 8 -3 22
1 31 9 8 8 19 12 24 9 6 -3 13 3 16 15 6 25 12 26 27 6 10 -14 16 -14 58 1 33
11 45 20 41 30 -8 21 2 17 33 -11 15 -14 24 -31 21 -39 -8 -20 11 -31 48 -28
36 4 215 61 233 75 6 5 12 6 12 2 0 -5 8 -2 18 6 9 8 29 21 45 29 15 7 27 17
27 20 0 9 151 114 167 116 20 3 69 42 99 77 15 17 40 40 57 50 16 10 31 27 34
38 3 10 12 19 20 19 26 0 59 29 73 65 7 19 22 37 32 41 25 8 128 112 128 130
0 18 -1 15 15 74 13 51 11 100 -6 132 -5 10 -7 18 -3 18 3 0 1 6 -5 14 -9 10
-9 15 -1 18 8 2 8 11 1 31 -6 16 -8 43 -5 60 17 89 8 121 -55 195 -25 28 -46
60 -47 69 -4 22 -43 52 -70 53 -12 0 -27 -7 -34 -15 -7 -8 -16 -12 -21 -9 -16
10 -9 24 11 24 13 0 20 7 20 19 0 26 -26 34 -45 14 -9 -8 -19 -12 -23 -9 -4 4
4 16 18 27 21 16 23 20 10 29 -8 6 -23 8 -33 6 -12 -3 -17 1 -15 11 5 25 -59
55 -101 48 -20 -3 -76 -8 -125 -10 l-89 -5 27 26 c14 15 26 30 26 34 0 10 -50
31 -60 25 -5 -3 -16 2 -24 11 -9 9 -28 19 -43 23 -36 10 -42 31 -9 31 14 0 26
-4 26 -9 0 -19 85 2 103 26 11 13 22 22 24 19 14 -13 42 16 41 43 -1 37 8 51
36 51 28 0 54 26 39 41 -19 19 -135 23 -177 5 -32 -13 -37 -18 -26 -31 10 -13
9 -15 -8 -15 -12 0 -23 9 -27 20 -3 11 -10 20 -14 20 -11 0 -42 -36 -40 -46 3
-20 -3 -22 -33 -10 -18 7 -50 12 -70 10 -23 -2 -38 2 -38 8 0 18 33 37 50 28
22 -11 91 0 97 16 9 23 -36 54 -77 54 -44 0 -83 25 -61 39 10 6 22 4 38 -6 13
-8 31 -13 41 -11 10 3 27 -1 36 -8 10 -7 24 -10 31 -8 16 6 29 -12 15 -21 -17
-10 -11 -25 10 -25 11 0 20 6 20 14 0 20 19 24 64 14 47 -11 130 -2 169 18 31
17 27 37 -6 32 -18 -2 -22 2 -22 22 0 14 -4 26 -10 27 -5 1 -12 9 -15 18 -3 9
-30 25 -60 36 -56 19 -72 33 -63 55 2 7 -6 15 -19 19 -13 4 -31 14 -40 23 -10
8 -18 11 -18 5 0 -5 -12 -15 -26 -22 l-26 -11 21 26 c16 20 18 28 8 39 -10 10
-16 10 -34 -2 -33 -22 -48 -12 -23 17 25 29 22 54 -7 58 -11 2 -24 11 -27 20
-3 9 -11 25 -18 35 -11 16 -9 21 17 40 17 12 44 35 60 51 17 15 40 37 53 47
18 14 22 23 16 41 -12 34 -11 50 4 82 8 17 11 38 6 55 -4 14 -7 55 -6 90 1 58
-1 66 -29 92 -16 15 -44 31 -62 35 -17 3 -40 12 -51 20 -10 7 -23 11 -30 9 -6
-2 -24 -6 -41 -9 -28 -6 -29 -5 -11 9 10 8 23 12 27 9 16 -10 130 46 168 83
22 21 60 56 86 77 27 23 54 59 66 85 11 25 23 53 28 61 5 9 12 31 16 50 4 19
11 41 15 50 37 71 50 121 41 160 -5 23 -5 42 0 46 10 6 1 111 -13 137 -6 11
-5 17 3 17 8 0 8 4 1 13 -7 8 -10 39 -8 72 4 55 -8 95 -27 95 -4 0 -17 -16
-28 -35 -12 -19 -25 -35 -29 -35 -11 0 9 62 23 71 5 4 0 13 -11 20 -10 8 -22
24 -26 37 -5 14 -13 21 -22 18 -7 -3 -16 -1 -20 5 -3 5 -14 7 -24 4 -10 -3
-28 0 -38 6 -17 10 -25 9 -47 -5 -27 -18 -27 -18 -20 6 7 20 6 21 -9 9 -9 -7
-16 -10 -16 -6 0 5 -11 -4 -24 -19 -18 -22 -24 -24 -29 -13 -3 8 -1 19 5 25 7
7 3 14 -12 22 -19 10 -26 9 -43 -9 l-20 -20 -23 26 c-23 26 -58 32 -134 20
-63 -10 -80 -16 -102 -31 -15 -10 -25 -12 -33 -6 -8 7 -16 6 -23 -2 -10 -13
-12 -18 -12 -40 0 -6 -9 -3 -20 7 -11 10 -21 16 -23 14 -1 -2 -7 -12 -12 -23
-6 -10 -15 -18 -20 -17 -5 2 -13 -8 -18 -21 -9 -22 -9 -22 -17 -3 -12 27 -12
0 -1 -47 5 -22 5 -38 0 -38 -8 0 -10 6 -9 25 1 12 -35 65 -48 70 -19 7 -110
-43 -115 -64 -3 -12 -6 -10 -14 8 l-10 25 -7 -27 c-7 -29 -29 -38 -24 -10 6
35 -110 36 -119 2 -5 -20 -23 -27 -23 -9 0 5 -7 7 -16 3 -9 -3 -14 -15 -12
-29 3 -23 -4 -26 -31 -16 -7 3 -18 -2 -23 -11 -8 -15 -38 -24 -38 -12 0 11 81
85 88 81 12 -7 45 22 37 33 -8 14 -35 14 -35 1 0 -5 -6 -10 -12 -10 -9 0 -13
19 -13 60 0 33 3 60 8 60 4 0 7 7 7 15 0 8 -4 15 -10 15 -5 0 -10 9 -10 19 0
33 -11 51 -32 51 -18 0 -19 2 -7 16 11 14 10 19 -8 34 -12 10 -19 21 -15 24 3
4 1 11 -6 15 -7 4 -14 19 -15 32 -1 13 -13 34 -27 46 -25 22 -25 22 -2 20 12
-1 22 -5 22 -9 0 -4 7 -5 15 -2 13 5 13 9 -3 23 -23 20 -42 74 -32 91 4 6 2
26 -4 43 -9 24 -8 31 2 35 10 3 10 7 1 18 -9 11 -9 18 -1 26 7 7 12 20 12 30
0 10 7 18 16 18 10 0 14 6 10 15 -3 8 0 15 6 15 7 0 6 5 -2 15 -10 12 -10 15
1 15 10 0 10 3 2 11 -6 6 -9 18 -6 25 3 9 -1 14 -12 14 -9 0 -14 -4 -11 -9z
m11 -489 c-11 -11 -27 17 -20 35 6 16 8 16 16 -6 5 -13 7 -26 4 -29z m1200
-2002 c3 -5 -1 -10 -9 -10 -9 0 -16 5 -16 10 0 6 4 10 9 10 6 0 13 -4 16 -10z
m-1105 -820 c0 -5 -5 -10 -11 -10 -5 0 -7 5 -4 10 3 6 8 10 11 10 2 0 4 -4 4
-10z m-497 -580 c3 -11 1 -23 -4 -26 -5 -3 -9 6 -9 20 0 31 6 34 13 6z m102
-200 c17 0 29 -38 22 -71 -3 -19 -5 -16 -6 9 0 18 -7 35 -15 38 -8 3 -22 17
-31 31 -14 21 -15 27 -4 34 10 6 15 2 17 -16 2 -14 10 -25 17 -25z m0 -39 c3
-5 1 -12 -5 -16 -5 -3 -10 1 -10 9 0 18 6 21 15 7z m-455 -27 c0 -8 -5 -12
-10 -9 -6 4 -8 11 -5 16 9 14 15 11 15 -7z"/>
<path d="M4110 4905 c0 -12 28 -35 44 -35 13 0 5 24 -11 36 -23 18 -33 17 -33
-1z"/>
<path d="M3305 4730 c3 -5 8 -10 11 -10 2 0 4 5 4 10 0 6 -5 10 -11 10 -5 0
-7 -4 -4 -10z"/>
<path d="M2645 4590 c3 -5 8 -10 11 -10 2 0 4 5 4 10 0 6 -5 10 -11 10 -5 0
-7 -4 -4 -10z"/>
<path d="M4504 4535 c-9 -23 3 -45 21 -39 20 8 20 54 0 54 -9 0 -18 -7 -21
-15z"/>
<path d="M5670 4531 c0 -5 7 -12 16 -15 14 -5 15 -4 4 9 -14 17 -20 19 -20 6z"/>
<path d="M3600 4431 c0 -5 6 -14 14 -20 12 -10 13 -8 9 8 -5 21 -23 30 -23 12z"/>
<path d="M5074 3396 c-8 -22 -2 -27 16 -16 12 7 12 12 3 21 -10 10 -14 9 -19
-5z"/>
<path d="M5024 3345 c-11 -15 -31 -26 -47 -27 -28 -2 -32 -21 -6 -26 18 -3 88
48 89 66 0 19 -14 14 -36 -13z"/>
<path d="M8109 3348 c-11 -21 -12 -21 -25 -3 -13 17 -14 17 -23 -6 -5 -13 -10
-18 -10 -10 -1 8 -8 11 -20 8 -10 -2 -24 -1 -31 3 -16 10 -57 -8 -64 -27 -3
-8 1 -30 9 -49 8 -19 10 -34 6 -34 -5 0 -14 14 -21 30 -19 45 -50 33 -125 -49
-22 -24 -44 -50 -48 -57 -10 -17 -56 -42 -90 -48 -59 -11 -103 -49 -142 -126
-14 -28 -39 -57 -59 -69 -19 -12 -37 -28 -40 -37 -11 -30 7 -125 30 -160 13
-19 21 -34 18 -34 -18 0 -43 23 -48 44 -5 22 -29 38 -61 41 -16 2 -44 -26 -67
-66 -11 -21 -29 -39 -39 -42 -16 -4 -16 -7 -1 -51 12 -32 21 -45 31 -41 13 5
120 -32 131 -46 11 -13 50 -16 60 -5 5 7 7 15 4 18 -3 3 6 8 19 12 25 6 32 32
14 54 -6 8 -6 12 2 12 6 0 16 -10 22 -22 13 -30 79 -76 102 -72 10 1 31 -1 47
-6 33 -9 126 9 175 34 17 9 37 16 46 16 8 0 28 13 44 30 15 16 31 29 34 28 26
-3 45 8 83 44 24 23 47 43 52 43 5 0 14 9 20 19 16 29 50 61 59 58 5 -1 6 2 3
7 -4 5 -1 11 6 13 7 3 9 11 3 24 -11 27 -13 54 -3 54 4 0 8 -4 8 -9 0 -5 5
-22 11 -38 10 -27 11 -27 25 -9 8 11 15 31 15 45 1 17 3 20 6 9 7 -26 14 -23
53 22 19 22 48 54 64 70 16 16 35 46 43 67 11 33 11 43 -4 75 -11 23 -23 36
-31 33 -7 -3 -10 0 -7 6 8 12 -42 119 -56 119 -5 0 -11 -1 -15 -2 -3 -2 -12
12 -21 31 -10 19 -25 36 -35 39 -10 2 -18 8 -18 12 0 5 -9 6 -20 3 -11 -3 -18
-9 -15 -13 3 -5 0 -12 -6 -16 -9 -5 -10 1 -5 20 4 15 2 26 -4 26 -5 0 -10 -11
-10 -24 0 -19 -4 -23 -20 -19 -10 3 -22 14 -25 24 -8 25 -22 24 -36 -3z"/>
<path d="M8160 3350 c0 -5 5 -10 10 -10 6 0 10 5 10 10 0 6 -4 10 -10 10 -5 0
-10 -4 -10 -10z"/>
<path d="M2060 3330 c0 -5 5 -10 11 -10 5 0 7 5 4 10 -3 6 -8 10 -11 10 -2 0
-4 -4 -4 -10z"/>
<path d="M8405 3251 c-3 -5 1 -15 8 -23 8 -7 12 -19 9 -26 -2 -6 2 -12 8 -12
7 0 9 -8 5 -19 -4 -13 3 -28 19 -46 22 -23 27 -25 32 -11 3 9 2 22 -4 29 -5 6
-12 25 -16 40 -4 15 -11 25 -15 22 -5 -3 -14 9 -20 25 -10 32 -16 36 -26 21z"/>
<path d="M5128 2478 c-10 -25 -9 -32 7 -34 22 -3 30 16 13 33 -12 12 -16 12
-20 1z"/>
<path d="M5168 2439 c-10 -5 -18 -14 -18 -20 0 -6 6 -6 18 0 9 5 20 9 25 10
10 1 10 15 0 18 -4 1 -16 -2 -25 -8z"/>
<path d="M5080 2255 c0 -9 6 -12 15 -9 8 4 15 10 15 15 0 5 -7 9 -15 9 -8 0
-15 -7 -15 -15z"/>
<path d="M5080 2226 c0 -2 9 -6 20 -9 11 -3 18 -1 14 4 -5 9 -34 13 -34 5z"/>
<path d="M4426 1954 c-17 -35 -24 -60 -18 -66 5 -5 15 7 25 34 37 102 34 116
-7 32z"/>
<path d="M4165 1690 c-3 -5 -1 -10 4 -10 6 0 11 5 11 10 0 6 -2 10 -4 10 -3 0
-8 -4 -11 -10z"/>
<path d="M3827 1474 c-4 -4 -4 -18 -1 -31 4 -13 1 -29 -4 -36 -6 -7 -12 -35
-13 -62 -2 -63 -8 -87 -20 -80 -8 6 -14 -18 -9 -40 1 -5 3 -23 4 -40 2 -16 6
-42 10 -57 6 -19 4 -28 -3 -28 -6 0 -11 11 -11 25 0 14 -5 25 -11 25 -7 0 -9
-9 -6 -22 4 -12 2 -28 -4 -34 -7 -9 -7 -19 1 -33 14 -27 30 -27 30 -1 0 28 14
25 40 -7 16 -22 20 -24 16 -8 -11 44 -14 105 -5 105 5 0 9 -12 9 -27 0 -48 12
-103 22 -103 6 0 8 6 5 13 -3 8 -1 20 4 28 6 10 9 5 9 -17 0 -16 7 -39 15 -50
14 -18 14 -17 10 16 -5 34 -5 34 6 8 6 -16 15 -28 20 -28 12 0 12 5 -5 45 -8
19 -11 35 -7 35 5 0 12 -8 15 -17 6 -15 9 -15 16 -3 5 8 5 21 0 31 -5 9 -6 19
-3 23 7 6 6 76 -1 113 -3 11 -12 36 -22 55 -10 18 -19 40 -21 48 -1 9 -16 42
-32 75 -17 33 -31 66 -31 73 0 13 -13 16 -23 6z"/>
<path d="M4024 1050 c3 -14 6 -33 6 -42 0 -10 5 -18 11 -18 14 0 4 60 -13 75
-8 7 -9 3 -4 -15z"/>
<path d="M4070 956 c0 -19 5 -38 10 -41 6 -4 10 8 10 29 0 19 -4 38 -10 41 -6
4 -10 -8 -10 -29z"/>
<path d="M4102 955 c0 -11 3 -29 8 -40 11 -25 11 1 0 35 -6 20 -8 21 -8 5z"/>
<path d="M4137 888 c3 -18 12 -40 21 -48 13 -13 14 -12 8 10 -4 14 -10 35 -13
48 -8 35 -23 26 -16 -10z"/>
<path d="M2835 780 c4 -6 11 -8 16 -5 14 9 11 15 -7 15 -8 0 -12 -5 -9 -10z"/>
<path d="M3030 762 c0 -16 47 -53 74 -58 14 -2 26 -1 26 4 0 13 -49 56 -56 49
-4 -3 -15 -2 -25 4 -11 5 -19 6 -19 1z"/>
<path d="M3128 756 c-14 -8 -11 -12 20 -23 45 -15 52 -16 52 -3 0 6 -6 10 -14
10 -8 0 -21 6 -28 13 -10 10 -18 11 -30 3z"/>
<path d="M3026 701 c-3 -5 3 -11 15 -14 16 -4 18 -3 8 9 -13 16 -16 17 -23 5z"/>
</g>
</svg>
